:FULLY-SPECIFIED
:FORCE-ALL-JOINTS-BE-3DOF
:DEGREES
2141
root -2.66819 15.195 1.17824 -177.079 6.19479 -175.857
lfemur -53.6275 13.081 -25.4251
ltibia 54.1314 -0 0
lfoot 0.171546 23.2767 0.00203622
ltoes 4.40685 -0 0
rfemur -1.57349 -0.522346 22.3069
rtibia 68.5376 -0 0
rfoot 8.70377 17.9102 0.204806
rtoes -21.3132 0 0
lowerback 10.5184 0.0170672 -1.82457
upperback -1.23272 0.079559 3.05134
thorax -7.22377 0.211351 4.24533
lowerneck -5.26567 0.366059 -4.36957
upperneck 4.82116 0.702261 2.26299
head 2.4284 0.340945 1.51312
lclavicle 2.80908e-14 -3.97569e-15 0
lhumerus 51.6746 1.88481 102.779
lradius 15.5937 -0 0
lwrist -45.7727 0 0
lhand -32.6378 40.0984 0.000253594
lfingers 7.12502 -0 0
lthumb -5.86454 69.9967 0.000280148
rclavicle 2.80908e-14 -3.97569e-15 0
rhumerus -61.6877 18.2462 -93.3634
rradius 109.784 -0 0
rwrist -70.3096 0 0
rhand -15.1429 -33.1061 0.0161626
rfingers 7.12502 -0 0
rthumb 11.0265 -62.7893 0.0172932
2142
root -2.66748 15.1942 1.13131 -177.116 6.14466 -175.895
lfemur -53.4934 13.087 -25.5016
ltibia 54.0456 -0 0
lfoot 0.184171 23.4982 0.000532946
ltoes 5.01372 -0 0
rfemur -1.39557 -0.548127 22.1552
rtibia 68.7054 -0 0
rfoot 9.32737 18.3375 0.0535586
rtoes -21.1817 0 0
lowerback 10.4949 -0.010768 -1.90415
upperback -1.21342 0.0306902 3.05397
thorax -7.18928 0.190014 4.30263
lowerneck -5.29032 0.393345 -4.379
upperneck 4.7879 0.740966 2.23666
head 2.42014 0.35917 1.50742
lclavicle 2.80908e-14 -3.97569e-15 0
lhumerus 52.1082 2.1193 103.176
lradius 14.6679 -0 0
lwrist -46.1454 0 0
lhand -32.6881 40.0914 6.63789e-05
lfingers 7.12502 -0 0
lthumb -5.91306 69.9888 7.33295e-05
rclavicle 2.80908e-14 -3.97569e-15 0
rhumerus -62.6149 17.7529 -93.4784
rradius 109.686 -0 0
rwrist -70.4518 0 0
rhand -15.32 -33.2315 0.00423031
rfingers 7.12502 -0 0
rthumb 10.856 -62.9287 0.00452622
2143
root -2.5618 15.2055 -0.734941 -177.129 6.12727 -175.908
lfemur -53.4469 13.0892 -25.5282
ltibia 54.0159 0 0
lfoot 0.18855 23.5751 0
ltoes 5.22427 0 0
rfemur -1.33383 -0.556961 22.1025
rtibia 68.7636 0 0
rfoot 9.54346 18.4854 0
rtoes -21.136 0 0
lowerback 10.4867 -0.0204328 -1.93176
upperback -1.20673 0.0137355 3.05488
thorax -7.17732 0.182604 4.32251
lowerneck -5.29888 0.402811 -4.38228
upperneck 4.77636 0.75439 2.22752
head 2.41728 0.365493 1.50544
lclavicle 1.36292e-14 -2.00773e-14 0
lhumerus 52.259 2.19995 103.314
lradius 14.3467 0 0
lwrist -46.2747 0 0
lhand -32.7055 40.089 0
lfingers 7.12502 0 0
lthumb -5.92989 69.986 0
rclavicle 1.36292e-14 -2.00773e-14 0
rhumerus -62.9357 17.5814 -93.5162
rradius 109.652 0 0
rwrist -70.5012 0 0
rhand -15.3814 -33.275 0
rfingers 7.12502 0 0
rthumb 10.7969 -62.977 0
2144
root -2.54637 15.2082 -0.995527 -177.324 5.73494 -176.15
lfemur -52.7684 12.8727 -25.597
ltibia 54.2215 -0 0
lfoot -0.278689 23.6439 -0.00973917
ltoes 4.43945 -0 0
rfemur -2.92004 -0.667408 21.9116
rtibia 69.5325 -0 0
rfoot 9.11707 17.8131 0.0879733
rtoes -20.5803 0 0
lowerback 10.6203 -0.0408236 -2.14112
upperback -1.17063 -0.0504112 3.00873
thorax -7.20194 0.156324 4.40748
lowerneck -5.3216 0.315916 -4.41763
upperneck 4.92596 0.633707 2.27111
head 2.46651 0.303011 1.51496
lclavicle 1.36292e-14 -2.00773e-14 0
lhumerus 51.9106 1.6158 102.783
lradius 14.8169 -0 0
lwrist -45.2438 0 0
lhand -32.6497 40.199 0.0018481
lfingers 7.12502 -0 0
lthumb -5.876 70.0973 0.00180503
rclavicle 1.36292e-14 -2.00773e-14 0
rhumerus -62.1582 17.6492 -93.3245
rradius 110.029 -0 0
rwrist -70.2973 0 0
rhand -14.9825 -33.2402 0.0042024
rfingers 7.12502 -0 0
rthumb 11.1806 -62.9074 0.00806979
2145
root -2.53029 15.213 -1.24832 -177.573 5.22866 -176.46
lfemur -51.8954 12.5951 -25.6894
ltibia 54.4861 -0 0
lfoot -0.880208 23.7326 -0.0214503
ltoes 3.42911 -0 0
rfemur -4.96156 -0.817297 21.6704
rtibia 70.5223 -0 0
rfoot 8.56669 16.9467 0.193845
rtoes -19.8649 0 0
lowerback 10.7923 -0.0663549 -2.41072
upperback -1.12408 -0.132948 2.94926
thorax -7.2337 0.122546 4.51689
lowerneck -5.35078 0.204032 -4.46309
upperneck 5.11841 0.478178 2.32675
head 2.52987 0.222563 1.52714
lclavicle 1.36292e-14 -2.00773e-14 0
lhumerus 51.4702 0.859096 102.104
lradius 15.4223 -0 0
lwrist -43.9166 0 0
lhand -32.5778 40.3406 0.00406951
lfingers 7.12502 -0 0
lthumb -5.80662 70.2405 0.00397468
rclavicle 1.36292e-14 -2.00773e-14 0
rhumerus -61.1565 17.7328 -93.0763
rradius 110.515 -0 0
rwrist -70.0347 0 0
rhand -14.469 -33.1953 0.00925508
rfingers 7.12502 -0 0
rthumb 11.6747 -62.8178 0.0177722
2146
root -2.5137 15.2195 -1.49283 -177.867 4.6212 -176.827
lfemur -50.8515 12.2649 -25.8054
ltibia 54.8027 -0 0
lfoot -1.59991 23.8388 -0.0342376
ltoes 2.22032 -0 0
rfemur -7.40336 -1.00777 21.3891
rtibia 71.7066 -0 0
rfoot 7.90618 15.9087 0.309553
rtoes -19.0089 0 0
lowerback 10.9983 -0.095837 -2.73337
upperback -1.06828 -0.231634 2.87802
thorax -7.27177 0.082213 4.64781
lowerneck -5.38557 0.070139 -4.5174
upperneck 5.34846 0.291855 2.39264
head 2.60566 0.126294 1.54159
lclavicle 1.36292e-14 -2.00773e-14 0
lhumerus 50.9551 -0.0529845 101.3
lradius 16.1466 -0 0
lwrist -42.3287 0 0
lhand -32.4919 40.51 0.00649393
lfingers 7.12502 -0 0
lthumb -5.7236 70.4118 0.0063426
rclavicle 1.36292e-14 -2.00773e-14 0
rhumerus -59.9569 17.8274 -92.7772
rradius 111.096 -0 0
rwrist -69.7207 0 0
rhand -13.8546 -33.1415 0.0147713
rfingers 7.12502 -0 0
rthumb 12.2657 -62.7105 0.0283645
